<?xml version="1.0" encoding="UTF-8"?>
<!DOCTYPE svg PUBLIC "-//W3C//DTD SVG 1.1//EN" "http://www.w3.org/Graphics/SVG/1.1/DTD/svg11.dtd">
<!-- Creator: CorelDRAW 2020 (64 Bit) -->
<svg xmlns="http://www.w3.org/2000/svg" xml:space="preserve" width="107.384mm" height="46.508mm" version="1.1"
	style="shape-rendering:geometricPrecision; text-rendering:geometricPrecision; image-rendering:optimizeQuality; fill-rule:evenodd; clip-rule:evenodd"
	viewBox="0 0 12066.63 5226.06" xmlns:xlink="http://www.w3.org/1999/xlink"
	xmlns:xodm="http://www.corel.com/coreldraw/odm/2003">
	<defs>
		<style type="text/css">
			<![CDATA[
			.fil0 {
				fill: #E74C3C;
				fill-rule: nonzero
			}
			]]>
		</style>
	</defs>
	<g id="Camada_x0020_1">
		<metadata id="CorelCorpID_0Corel-Layer" />
		<path class="fil0"
			d="M1290.93 3048.22c-63.56,0 -134.85,-12.89 -213.87,-38.65 -79.02,-25.77 -160.18,-56.69 -243.49,-92.76 -83.31,-36.07 -164.47,-70.43 -243.5,-103.06 -42.94,46.37 -89.32,82.46 -139.14,108.22 -49.81,25.77 -103.06,38.64 -159.76,38.64 -60.12,0 -112.09,-13.32 -155.89,-39.94 -43.8,-26.63 -77.3,-58.84 -100.49,-96.63 -23.19,-37.79 -34.79,-72.15 -34.79,-103.06 0,-34.36 15.46,-64.42 46.39,-90.19 30.92,-25.77 85.88,-38.65 164.91,-38.65 46.37,0 97.48,4.73 153.31,14.18 55.84,9.44 112.94,21.9 171.35,37.36 39.51,-68.71 76.02,-149.45 109.51,-242.21 33.5,-92.76 66.56,-190.25 99.2,-292.45 32.63,-102.21 65.28,-202.28 97.91,-300.19 -85.88,-29.19 -152.02,-69.99 -198.4,-122.39 -46.39,-52.39 -69.57,-105.21 -69.57,-158.46 0,-34.35 8.58,-68.29 25.77,-101.78 17.17,-33.49 42.08,-61.84 74.73,-85.03 32.63,-23.18 71.29,-34.78 115.94,-34.78 -22.33,27.49 -36.5,58.4 -42.51,92.76 -6.01,34.35 -9.02,61.84 -9.02,82.46 0,56.68 12.89,104.78 38.65,144.29 25.77,39.51 57.54,70.42 95.33,92.76 32.64,-97.92 67.42,-191.97 104.36,-282.15 36.94,-90.19 78.16,-170.06 123.68,-239.64 45.52,-69.57 96.19,-124.97 152.02,-166.19 55.82,-41.23 118.95,-61.84 189.39,-61.84 39.51,0 81.16,8.16 124.97,24.47 43.8,16.32 81.59,44.24 113.38,83.75 31.78,39.51 47.67,96.19 47.67,170.06 0,58.4 -12.46,121.1 -37.36,188.09 -24.91,66.99 -63.99,130.98 -117.25,191.96 -53.25,60.98 -121.53,111.66 -204.84,152.02 -83.32,40.37 -184.24,62.27 -302.77,65.71 -3.44,0 -7.3,0 -11.6,0 -4.29,0 -8.16,0 -11.6,0 -32.63,99.63 -66.99,200.12 -103.06,301.47 -36.07,101.35 -74.73,198.4 -115.95,291.16 -41.23,92.76 -85.88,175.22 -133.99,247.36 66.99,18.9 141.29,40.37 222.88,64.42 81.6,24.05 163.19,44.24 244.78,60.56 81.6,16.32 153.32,24.47 215.16,24.47 41.22,0 79.44,-4.72 114.66,-14.17 35.21,-9.45 72.57,-23.62 112.08,-42.52 -34.35,96.2 -76.87,165.34 -127.54,207.43 -50.68,42.08 -111.23,63.13 -181.66,63.13zm-1025.52 -182.95c44.67,0 80.74,-9.88 108.22,-29.63 27.49,-19.75 54.97,-44.24 82.46,-73.43 -53.25,-18.9 -103.08,-34.79 -149.45,-47.68 -46.39,-12.88 -86.75,-19.32 -121.11,-19.32 -32.63,0 -56.25,6.01 -70.85,18.04 -14.61,12.02 -21.91,26.62 -21.91,43.8 0,27.49 17.18,52.4 51.54,74.73 34.35,22.33 74.71,33.5 121.1,33.5zm806.51 -1105.4c75.58,-5.16 142.57,-29.2 200.98,-72.15 58.4,-42.95 108.21,-94.48 149.44,-154.6 41.23,-60.13 72.58,-121.54 94.05,-184.24 21.47,-62.69 32.2,-117.23 32.2,-163.62 0,-44.66 -8.58,-75.15 -25.77,-91.47 -17.17,-16.32 -36.92,-24.47 -59.26,-24.47 -49.81,0 -97.05,31.78 -141.72,95.33 -44.66,63.56 -87.18,147.3 -127.54,251.22 -40.37,103.93 -81.16,218.59 -122.39,344z" />
		<path id="1" class="fil0"
			d="M2004.66 2937.42c-109.93,0 -194.53,-29.63 -253.8,-88.9 -59.26,-59.26 -88.9,-133.55 -88.9,-222.88 0,-75.58 19.33,-155.89 57.97,-240.92 38.65,-85.03 90.61,-164.9 155.89,-239.63 65.28,-74.73 137.43,-135.28 216.45,-181.66 79.02,-46.39 158.04,-69.57 237.05,-69.57 44.67,0 87.18,11.59 127.55,34.78 40.36,23.19 60.54,69.14 60.54,137.85 0,65.28 -18.89,126.26 -56.68,182.95 -37.79,56.68 -88.47,107.36 -152.02,152.02 -63.57,44.66 -133.56,81.16 -210.01,109.5 -76.44,28.35 -153.32,46.81 -230.61,55.4 -1.72,6.88 -3,14.18 -3.87,21.91 -0.85,7.72 -1.28,20.18 -1.28,37.35 0,8.6 1.28,23.62 3.87,45.09 2.57,21.47 9.88,44.24 21.9,68.29 12.02,24.05 31.78,44.67 59.26,61.84 27.49,17.18 65.28,25.77 113.37,25.77 72.15,0 144.73,-20.18 217.74,-60.54 73.01,-40.37 141.71,-94.05 206.13,-161.05 64.42,-66.99 118.1,-141.72 161.05,-224.18l51.53 41.23c-46.39,103.08 -106.08,193.25 -179.08,270.55 -73.01,77.31 -153.74,137.43 -242.21,180.37 -88.47,42.95 -179.07,64.41 -271.84,64.41zm-108.21 -466.38c44.66,-5.16 94.48,-20.61 149.44,-46.37 54.97,-25.77 107.8,-58.41 158.47,-97.92 50.67,-39.51 92.33,-82.88 124.97,-130.12 32.64,-47.24 48.96,-94.91 48.96,-143 0,-18.9 -3.44,-31.79 -10.3,-38.65 -6.88,-6.88 -18.05,-10.3 -33.5,-10.3 -39.51,0 -80.74,14.17 -123.68,42.51 -42.95,28.35 -85.03,65.28 -126.26,110.8 -41.23,45.52 -78.16,95.77 -110.8,150.74 -32.64,54.97 -58.41,109.08 -77.3,162.33z" />
		<path id="2" class="fil0"
			d="M3932.03 2903.92c-66.99,0 -116.81,-19.75 -149.45,-59.26 -32.63,-39.51 -48.96,-86.75 -48.96,-141.71 0,-39.51 6.02,-79.02 18.05,-118.53 12.02,-39.51 24.05,-78.59 36.07,-117.25 12.02,-38.64 18.04,-73.43 18.04,-104.36 0,-29.2 -5.58,-49.39 -16.74,-60.54 -11.17,-11.17 -25.34,-16.75 -42.52,-16.75 -39.51,0 -85.46,30.06 -137.85,90.19 -52.39,60.12 -117.23,147.73 -194.53,262.82 -27.49,41.23 -53.25,84.6 -77.31,130.12 -24.05,45.52 -45.52,83.74 -64.41,114.66 -15.46,0 -35.64,-2.57 -60.56,-7.73 -24.91,-5.15 -46.81,-12.45 -65.7,-21.9 -18.9,-9.45 -28.35,-21.9 -28.35,-37.36 0,-15.46 8.6,-45.52 25.77,-90.19 17.18,-44.66 36.94,-96.63 59.26,-155.89 22.34,-59.26 42.09,-117.66 59.26,-175.21 17.18,-57.56 25.78,-106.08 25.78,-145.59 0,-24.05 -4.3,-42.95 -12.89,-56.69 -8.58,-13.74 -22.33,-20.61 -41.23,-20.61 -36.07,0 -79.44,21.46 -130.12,64.41 -50.68,42.95 -103.93,99.21 -159.76,168.78 -55.82,69.57 -108.22,146.87 -157.17,231.9 -48.96,85.03 -88.91,170.5 -119.82,256.38 -18.9,0 -42.09,-3.87 -69.57,-11.6 -27.49,-7.73 -51.54,-17.17 -72.15,-28.34 -20.61,-11.17 -30.92,-21.05 -30.92,-29.63 0,-1.72 6.01,-26.19 18.04,-73.43 12.03,-47.24 26.63,-106.08 43.81,-176.51 17.17,-70.42 35.21,-142.57 54.11,-216.43 18.9,-73.87 35.22,-138.28 48.96,-193.25 5.15,-18.9 24.05,-35.64 56.69,-50.25 32.63,-14.6 60.98,-21.9 85.03,-21.9 24.05,0 44.66,7.73 61.84,23.19 17.18,15.46 25.77,36.07 25.77,61.84 0,17.18 -3.44,42.09 -10.3,74.73 -6.88,32.64 -15.46,69.57 -25.77,110.8 36.07,-48.09 74.29,-95.76 114.66,-143 40.36,-47.24 82.46,-89.76 126.26,-127.55 43.8,-37.79 87.6,-67.85 131.42,-90.19 43.8,-22.33 87.18,-33.5 130.11,-33.5 63.57,0 106.5,22.77 128.84,68.29 22.33,45.52 33.5,94.91 33.5,148.16 0,22.33 -1.72,44.24 -5.16,65.7 -3.44,21.47 -8.16,42.95 -14.17,64.42 -6.01,21.47 -14.17,46.81 -24.47,76.02 32.63,-48.11 68.28,-92.33 106.93,-132.71 38.64,-40.36 80.3,-72.57 124.97,-96.63 44.67,-24.05 91.91,-36.07 141.72,-36.07 66.99,0 113.37,20.18 139.14,60.56 25.78,40.36 38.65,84.6 38.65,132.7 0,44.67 -7.3,91.47 -21.9,140.43 -14.6,48.96 -29.2,95.35 -43.8,139.15 -14.61,43.8 -21.9,81.16 -21.9,112.09 0,17.17 4.29,33.06 12.88,47.67 8.6,14.6 25.77,21.9 51.53,21.9 46.39,0 91.04,-21.47 133.99,-64.42 42.95,-42.95 82.88,-95.76 119.82,-158.46 36.94,-62.7 68.29,-122.39 94.05,-179.08l43.8 54.11c-27.49,70.43 -63.13,142.16 -106.93,215.16 -43.81,73.01 -94.91,133.98 -153.32,182.94 -58.41,48.96 -125.4,73.43 -200.98,73.43z" />
		<path id="3" class="fil0"
			d="M4558.16 3012.14c-97.91,0 -172.21,-30.49 -222.88,-91.47 -50.67,-60.98 -76.01,-144.72 -76.01,-251.22 0,-85.89 14.6,-186.39 43.8,-301.47 29.2,-115.09 67.86,-235.77 115.95,-362.03 48.09,-126.26 102.21,-249.93 162.33,-371.04 60.13,-121.1 121.11,-230.61 182.95,-328.52 61.84,-97.92 120.25,-176.07 175.22,-234.48 54.97,-58.41 102.21,-87.6 141.72,-87.6 34.35,0 60.12,19.75 77.3,59.26 17.17,39.51 25.77,80.73 25.77,123.67 0,46.39 -10.3,103.93 -30.92,172.64 -20.61,68.71 -49.81,141.28 -87.6,217.73 -37.79,76.44 -81.6,152.45 -131.42,228.04 -49.81,75.58 -104.36,144.29 -163.62,206.13 -59.26,61.85 -120.67,110.8 -184.23,146.88 -12.02,22.33 -27.06,60.98 -45.09,115.94 -18.04,54.97 -34.35,117.25 -48.96,186.81 -14.6,69.57 -21.9,137.85 -21.9,204.85 0,68.71 10.73,124.54 32.2,167.49 21.47,42.95 57.12,64.41 106.94,64.41 44.66,0 91.9,-17.6 141.71,-52.81 49.82,-35.22 91.05,-79.46 123.68,-132.71 -63.56,-34.35 -111.66,-82.45 -144.29,-144.29 -32.64,-61.84 -48.96,-127.11 -48.96,-195.83 0,-82.46 22.33,-149.88 66.99,-202.28 44.67,-52.39 100.49,-78.58 167.49,-78.58 54.97,0 100.49,21.04 136.56,63.13 36.07,42.08 54.12,108.65 54.12,199.69 0,46.37 -5.58,95.76 -16.75,148.16 -11.17,52.4 -28.77,106.08 -52.82,161.05 5.16,1.71 9.88,2.57 14.18,2.57 4.29,0 9.01,0 14.17,0 68.71,0 128.83,-21.9 180.36,-65.7 51.53,-43.81 97.05,-99.21 136.56,-166.21 39.51,-66.99 73.01,-136.56 100.49,-208.7 27.49,-72.15 50.68,-136.57 69.58,-193.25 -6.88,-8.6 -12.46,-17.61 -16.75,-27.06 -4.29,-9.45 -6.44,-21.9 -6.44,-37.36 0,-49.81 14.6,-94.48 43.8,-133.99 29.2,-39.51 57.54,-59.26 85.03,-59.26 22.33,0 36.51,11.17 42.52,33.5 6.01,22.33 9.01,37.79 9.01,46.37 0,13.74 -4.72,30.92 -14.17,51.54 -9.45,20.61 -14.17,36.07 -14.17,46.37 0,15.46 14.17,32.2 42.51,50.25 28.35,18.04 60.98,39.51 97.92,64.41 36.94,24.91 69.57,56.26 97.92,94.05 28.34,37.79 42.51,85.03 42.51,141.72 0,49.81 -10.3,101.35 -30.91,154.6 -20.62,53.25 -41.67,103.06 -63.13,149.45 -21.47,46.37 -32.22,86.75 -32.22,121.1 0,22.34 6.44,37.36 19.33,45.09 12.89,7.73 27.91,11.6 45.09,11.6 41.23,0 83.74,-12.89 127.55,-38.65 43.8,-25.77 85.88,-58.83 126.25,-99.2 40.37,-40.36 76.44,-82.88 108.22,-127.55 31.78,-44.66 56.26,-85.88 73.44,-123.67l46.37 30.91c-34.35,75.59 -79.44,150.74 -135.27,225.47 -55.84,74.73 -118.97,136.99 -189.39,186.8 -70.43,49.82 -145.16,74.73 -224.18,74.73 -63.56,0 -115.53,-16.74 -155.89,-50.24 -40.37,-33.5 -60.56,-79.44 -60.56,-137.85 0,-48.09 11.6,-100.49 34.79,-157.18 23.19,-56.68 46.37,-112.09 69.57,-166.19 23.19,-54.11 34.79,-101.78 34.79,-143 0,-42.95 -13.32,-76.44 -39.95,-100.49 -26.62,-24.06 -56.25,-46.39 -88.9,-66.99 -22.33,70.42 -48.52,144.29 -78.58,221.59 -30.07,77.3 -66.99,149.88 -110.81,217.73 -43.8,67.86 -97.05,122.83 -159.76,164.91 -62.69,42.08 -136.99,63.13 -222.88,63.13 -10.3,0 -21.04,-0.43 -32.2,-1.29 -11.16,-0.85 -22.75,-2.15 -34.78,-3.87 -48.11,77.3 -107.8,143.01 -179.08,197.12 -71.29,54.12 -155.04,81.16 -251.23,81.16zm360.74 -404.54c13.74,-32.63 24.91,-66.56 33.5,-101.77 8.6,-35.22 12.89,-74.3 12.89,-117.25 0,-53.25 -6.44,-96.63 -19.33,-130.12 -12.89,-33.5 -31.35,-50.24 -55.4,-50.24 -22.33,0 -41.66,15.46 -57.97,46.37 -16.33,30.92 -24.49,68.71 -24.49,113.38 0,41.23 8.58,84.18 25.77,128.83 17.18,44.67 45.52,81.59 85.03,110.8zm-283.43 -631.29c41.23,-39.51 81.59,-84.6 121.1,-135.27 39.51,-50.68 76.44,-104.36 110.8,-161.05 34.36,-56.69 64.85,-112.09 91.48,-166.19 26.62,-54.12 48.52,-103.93 65.7,-149.45 17.18,-45.52 28.34,-82.88 33.5,-112.09 1.72,-5.15 2.57,-11.6 2.57,-19.32 0,-7.73 -1.72,-10.74 -5.16,-9.02 -15.45,3.44 -40.36,27.49 -74.71,72.15 -34.36,44.66 -73.01,103.06 -115.95,175.21 -42.95,72.15 -84.6,152.02 -124.97,239.64 -40.37,87.6 -75.16,176.07 -104.36,265.39z" />
		<path id="4" class="fil0"
			d="M6570.55 2937.42c-109.93,0 -194.53,-29.63 -253.8,-88.9 -59.26,-59.26 -88.9,-133.55 -88.9,-222.88 0,-75.58 19.33,-155.89 57.97,-240.92 38.65,-85.03 90.61,-164.9 155.89,-239.63 65.28,-74.73 137.43,-135.28 216.45,-181.66 79.02,-46.39 158.04,-69.57 237.05,-69.57 44.67,0 87.18,11.59 127.55,34.78 40.36,23.19 60.54,69.14 60.54,137.85 0,65.28 -18.89,126.26 -56.68,182.95 -37.79,56.68 -88.47,107.36 -152.02,152.02 -63.57,44.66 -133.56,81.16 -210.01,109.5 -76.44,28.35 -153.32,46.81 -230.61,55.4 -1.72,6.88 -3,14.18 -3.87,21.91 -0.85,7.72 -1.28,20.18 -1.28,37.35 0,8.6 1.28,23.62 3.87,45.09 2.57,21.47 9.88,44.24 21.9,68.29 12.02,24.05 31.78,44.67 59.26,61.84 27.49,17.18 65.28,25.77 113.37,25.77 72.15,0 144.73,-20.18 217.74,-60.54 73.01,-40.37 141.71,-94.05 206.13,-161.05 64.42,-66.99 118.1,-141.72 161.05,-224.18l51.53 41.23c-46.39,103.08 -106.08,193.25 -179.08,270.55 -73.01,77.31 -153.74,137.43 -242.21,180.37 -88.47,42.95 -179.07,64.41 -271.84,64.41zm-108.21 -466.38c44.66,-5.16 94.48,-20.61 149.44,-46.37 54.97,-25.77 107.8,-58.41 158.47,-97.92 50.67,-39.51 92.33,-82.88 124.97,-130.12 32.64,-47.24 48.96,-94.91 48.96,-143 0,-18.9 -3.44,-31.79 -10.3,-38.65 -6.88,-6.88 -18.05,-10.3 -33.5,-10.3 -39.51,0 -80.74,14.17 -123.68,42.51 -42.95,28.35 -85.03,65.28 -126.26,110.8 -41.23,45.52 -78.16,95.77 -110.8,150.74 -32.64,54.97 -58.41,109.08 -77.3,162.33z" />
		<path id="5" class="fil0"
			d="M7335.83 2849.81c-41.23,0 -70.43,-10.73 -87.6,-32.2 -17.18,-21.47 -25.77,-43.37 -25.77,-65.71 0,-18.89 8.58,-39.07 25.77,-60.54 17.17,-21.47 38.64,-39.51 64.41,-54.12 25.77,-14.6 49.82,-21.9 72.15,-21.9 18.89,0 37.79,5.58 56.69,16.75 18.89,11.16 28.34,32.2 28.34,63.13 0,13.74 -5.16,33.06 -15.46,57.97 -10.3,24.91 -25.34,47.24 -45.09,66.99 -19.75,19.75 -44.23,29.63 -73.43,29.63z" />
		<path id="6" class="fil0"
			d="M9121.48 2903.92c-66.99,0 -116.81,-19.75 -149.45,-59.26 -32.63,-39.51 -48.96,-86.75 -48.96,-141.71 0,-39.51 6.02,-79.02 18.05,-118.53 12.02,-39.51 24.05,-78.59 36.07,-117.25 12.02,-38.64 18.04,-73.43 18.04,-104.36 0,-29.2 -5.58,-49.39 -16.74,-60.54 -11.17,-11.17 -25.34,-16.75 -42.52,-16.75 -39.51,0 -85.46,30.06 -137.85,90.19 -52.39,60.12 -117.23,147.73 -194.53,262.82 -27.49,41.23 -53.25,84.6 -77.31,130.12 -24.05,45.52 -45.52,83.74 -64.41,114.66 -15.46,0 -35.64,-2.57 -60.56,-7.73 -24.91,-5.15 -46.81,-12.45 -65.7,-21.9 -18.9,-9.45 -28.35,-21.9 -28.35,-37.36 0,-15.46 8.6,-45.52 25.77,-90.19 17.18,-44.66 36.94,-96.63 59.26,-155.89 22.34,-59.26 42.09,-117.66 59.26,-175.21 17.18,-57.56 25.78,-106.08 25.78,-145.59 0,-24.05 -4.3,-42.95 -12.89,-56.69 -8.58,-13.74 -22.33,-20.61 -41.23,-20.61 -36.07,0 -79.44,21.46 -130.12,64.41 -50.68,42.95 -103.93,99.21 -159.76,168.78 -55.82,69.57 -108.22,146.87 -157.17,231.9 -48.96,85.03 -88.91,170.5 -119.82,256.38 -18.9,0 -42.09,-3.87 -69.57,-11.6 -27.49,-7.73 -51.54,-17.17 -72.15,-28.34 -20.61,-11.17 -30.92,-21.05 -30.92,-29.63 0,-1.72 6.01,-26.19 18.04,-73.43 12.03,-47.24 26.63,-106.08 43.81,-176.51 17.17,-70.42 35.21,-142.57 54.11,-216.43 18.9,-73.87 35.22,-138.28 48.96,-193.25 5.15,-18.9 24.05,-35.64 56.69,-50.25 32.63,-14.6 60.98,-21.9 85.03,-21.9 24.05,0 44.66,7.73 61.84,23.19 17.18,15.46 25.77,36.07 25.77,61.84 0,17.18 -3.44,42.09 -10.3,74.73 -6.88,32.64 -15.46,69.57 -25.77,110.8 36.07,-48.09 74.29,-95.76 114.66,-143 40.36,-47.24 82.46,-89.76 126.26,-127.55 43.8,-37.79 87.6,-67.85 131.42,-90.19 43.8,-22.33 87.18,-33.5 130.11,-33.5 63.57,0 106.5,22.77 128.84,68.29 22.33,45.52 33.5,94.91 33.5,148.16 0,22.33 -1.72,44.24 -5.16,65.7 -3.44,21.47 -8.16,42.95 -14.17,64.42 -6.01,21.47 -14.17,46.81 -24.47,76.02 32.63,-48.11 68.28,-92.33 106.93,-132.71 38.64,-40.36 80.3,-72.57 124.97,-96.63 44.67,-24.05 91.91,-36.07 141.72,-36.07 66.99,0 113.37,20.18 139.14,60.56 25.78,40.36 38.65,84.6 38.65,132.7 0,44.67 -7.3,91.47 -21.9,140.43 -14.6,48.96 -29.2,95.35 -43.8,139.15 -14.61,43.8 -21.9,81.16 -21.9,112.09 0,17.17 4.29,33.06 12.88,47.67 8.6,14.6 25.77,21.9 51.53,21.9 46.39,0 91.04,-21.47 133.99,-64.42 42.95,-42.95 82.88,-95.76 119.82,-158.46 36.94,-62.7 68.29,-122.39 94.05,-179.08l43.8 54.11c-27.49,70.43 -63.13,142.16 -106.93,215.16 -43.81,73.01 -94.91,133.98 -153.32,182.94 -58.41,48.96 -125.4,73.43 -200.98,73.43z" />
		<path id="7" class="fil0"
			d="M9773.38 2937.42c-109.93,0 -194.53,-29.63 -253.8,-88.9 -59.26,-59.26 -88.9,-133.55 -88.9,-222.88 0,-75.58 19.33,-155.89 57.97,-240.92 38.65,-85.03 90.61,-164.9 155.89,-239.63 65.28,-74.73 137.43,-135.28 216.45,-181.66 79.02,-46.39 158.04,-69.57 237.05,-69.57 44.67,0 87.18,11.59 127.55,34.78 40.36,23.19 60.54,69.14 60.54,137.85 0,65.28 -18.89,126.26 -56.68,182.95 -37.79,56.68 -88.47,107.36 -152.02,152.02 -63.57,44.66 -133.56,81.16 -210.01,109.5 -76.44,28.35 -153.32,46.81 -230.61,55.4 -1.72,6.88 -3,14.18 -3.87,21.91 -0.85,7.72 -1.28,20.18 -1.28,37.35 0,8.6 1.28,23.62 3.87,45.09 2.57,21.47 9.88,44.24 21.9,68.29 12.02,24.05 31.78,44.67 59.26,61.84 27.49,17.18 65.28,25.77 113.37,25.77 72.15,0 144.73,-20.18 217.74,-60.54 73.01,-40.37 141.71,-94.05 206.13,-161.05 64.42,-66.99 118.1,-141.72 161.05,-224.18l51.53 41.23c-46.39,103.08 -106.08,193.25 -179.08,270.55 -73.01,77.31 -153.74,137.43 -242.21,180.37 -88.47,42.95 -179.07,64.41 -271.84,64.41zm-108.21 -466.38c44.66,-5.16 94.48,-20.61 149.44,-46.37 54.97,-25.77 107.8,-58.41 158.47,-97.92 50.67,-39.51 92.33,-82.88 124.97,-130.12 32.64,-47.24 48.96,-94.91 48.96,-143 0,-18.9 -3.44,-31.79 -10.3,-38.65 -6.88,-6.88 -18.05,-10.3 -33.5,-10.3 -39.51,0 -80.74,14.17 -123.68,42.51 -42.95,28.35 -85.03,65.28 -126.26,110.8 -41.23,45.52 -78.16,95.77 -110.8,150.74 -32.64,54.97 -58.41,109.08 -77.3,162.33z" />
	</g>
</svg>
