<?xml version="1.0" encoding="UTF-8"?>
<!DOCTYPE svg PUBLIC "-//W3C//DTD SVG 1.1//EN" "http://www.w3.org/Graphics/SVG/1.1/DTD/svg11.dtd">
<!-- Creator: CorelDRAW 2020 (64 Bit) -->
<svg xmlns="http://www.w3.org/2000/svg" xml:space="preserve" width="93.1442mm" height="18.505mm" version="1.1" style="shape-rendering:geometricPrecision; text-rendering:geometricPrecision; image-rendering:optimizeQuality; fill-rule:evenodd; clip-rule:evenodd"
viewBox="0 0 8079.27 1605.11"
 xmlns:xlink="http://www.w3.org/1999/xlink"
 xmlns:xodm="http://www.corel.com/coreldraw/odm/2003">
 <defs>
  <style type="text/css">
   <![CDATA[
    .fil0 {fill:#E74C3C;fill-rule:nonzero}
   ]]>
  </style>
 </defs>
 <g id="Camada_x0020_1">
  <metadata id="CorelCorpID_0Corel-Layer"/>
  <path class="fil0" d="M996.49 1605.11c-49.06,0 -104.1,-9.95 -165.09,-29.84 -61,-19.89 -123.65,-43.76 -187.96,-71.6 -64.31,-27.84 -126.96,-54.37 -187.96,-79.56 -33.14,35.8 -68.95,63.65 -107.4,83.54 -38.45,19.89 -79.56,29.83 -123.32,29.83 -46.41,0 -86.52,-10.28 -120.33,-30.83 -33.81,-20.56 -59.67,-45.42 -77.57,-74.59 -17.9,-29.17 -26.85,-55.7 -26.85,-79.56 0,-26.52 11.94,-49.73 35.81,-69.62 23.87,-19.89 66.29,-29.84 127.3,-29.84 35.8,0 75.25,3.65 118.34,10.95 43.1,7.29 87.18,16.91 132.27,28.84 30.5,-53.04 58.68,-115.36 84.54,-186.97 25.86,-71.6 51.38,-146.86 76.57,-225.75 25.19,-78.9 50.39,-156.14 75.58,-231.72 -66.29,-22.53 -117.35,-54.03 -153.15,-94.48 -35.81,-40.44 -53.7,-81.21 -53.7,-122.32 0,-26.52 6.63,-52.71 19.89,-78.57 13.25,-25.85 32.48,-47.73 57.68,-65.64 25.19,-17.89 55.03,-26.85 89.5,-26.85 -17.24,21.22 -28.17,45.08 -32.81,71.6 -4.64,26.52 -6.97,47.73 -6.97,63.65 0,43.75 9.95,80.88 29.84,111.38 19.89,30.5 44.42,54.36 73.59,71.6 25.2,-75.58 52.04,-148.19 80.55,-217.79 28.51,-69.62 60.34,-131.27 95.47,-184.98 35.14,-53.7 74.25,-96.46 117.35,-128.29 43.09,-31.82 91.82,-47.73 146.19,-47.73 30.5,0 62.65,6.3 96.46,18.89 33.81,12.59 62.98,34.15 87.52,64.65 24.53,30.5 36.79,74.25 36.79,131.27 0,45.08 -9.62,93.48 -28.84,145.19 -19.23,51.71 -49.4,101.1 -90.5,148.18 -41.11,47.07 -93.81,86.19 -158.12,117.35 -64.32,31.17 -142.22,48.07 -233.71,50.73 -2.65,0 -5.64,0 -8.95,0 -3.31,0 -6.3,0 -8.95,0 -25.19,76.9 -51.71,154.47 -79.56,232.71 -27.84,78.23 -57.68,153.15 -89.51,224.75 -31.82,71.6 -66.29,135.25 -103.43,190.94 51.71,14.59 109.07,31.17 172.05,49.73 62.99,18.56 125.97,34.15 188.95,46.74 62.99,12.59 118.35,18.89 166.09,18.89 31.82,0 61.32,-3.64 88.51,-10.94 27.18,-7.29 56.02,-18.23 86.51,-32.82 -26.52,74.26 -59.34,127.63 -98.45,160.12 -39.12,32.48 -85.86,48.73 -140.22,48.73zm-791.61 -141.23c34.48,0 62.32,-7.62 83.54,-22.87 21.22,-15.25 42.43,-34.15 63.65,-56.68 -41.11,-14.59 -79.57,-26.85 -115.36,-36.8 -35.81,-9.94 -66.96,-14.91 -93.49,-14.91 -25.19,0 -43.42,4.64 -54.69,13.92 -11.28,9.28 -16.91,20.55 -16.91,33.81 0,21.22 13.26,40.45 39.79,57.68 26.52,17.24 57.67,25.86 93.48,25.86zm622.55 -853.27c58.34,-3.98 110.05,-22.54 155.14,-55.7 45.08,-33.15 83.53,-72.93 115.35,-119.34 31.82,-46.41 56.02,-93.82 72.6,-142.22 16.58,-48.39 24.86,-90.5 24.86,-126.3 0,-34.47 -6.63,-58.01 -19.89,-70.61 -13.25,-12.59 -28.5,-18.89 -45.75,-18.89 -38.45,0 -74.92,24.53 -109.4,73.59 -34.47,49.06 -67.29,113.71 -98.45,193.92 -31.17,80.23 -62.65,168.73 -94.48,265.54z"/>
  <path id="_1" class="fil0" d="M1547.43 1519.58c-84.86,0 -150.16,-22.87 -195.91,-68.62 -45.75,-45.75 -68.62,-103.09 -68.62,-172.05 0,-58.34 14.92,-120.33 44.75,-185.97 29.84,-65.64 69.95,-127.29 120.33,-184.97 50.39,-57.68 106.08,-104.43 167.08,-140.22 61,-35.81 121.99,-53.7 182.99,-53.7 34.48,0 67.29,8.94 98.46,26.85 31.16,17.9 46.74,53.37 46.74,106.41 0,50.39 -14.58,97.46 -43.75,141.22 -29.17,43.75 -68.29,82.87 -117.35,117.35 -49.07,34.47 -103.1,62.65 -162.11,84.53 -59.01,21.88 -118.35,36.14 -178.02,42.76 -1.33,5.31 -2.32,10.95 -2.98,16.91 -0.66,5.96 -0.99,15.58 -0.99,28.83 0,6.64 0.99,18.23 2.98,34.81 1.99,16.58 7.62,34.15 16.91,52.71 9.28,18.56 24.53,34.48 45.75,47.73 21.22,13.26 50.39,19.89 87.51,19.89 55.7,0 111.72,-15.58 168.07,-46.74 56.35,-31.17 109.39,-72.6 159.11,-124.31 49.73,-51.71 91.16,-109.4 124.31,-173.05l39.78 31.82c-35.81,79.57 -81.88,149.17 -138.24,208.84 -56.35,59.68 -118.68,106.08 -186.97,139.23 -68.29,33.15 -138.23,49.72 -209.84,49.72zm-83.53 -360c34.47,-3.98 72.93,-15.91 115.35,-35.8 42.43,-19.89 83.21,-45.09 122.33,-75.58 39.11,-30.5 71.27,-63.98 96.46,-100.44 25.2,-36.47 37.79,-73.26 37.79,-110.38 0,-14.59 -2.65,-24.54 -7.95,-29.84 -5.31,-5.31 -13.93,-7.95 -25.86,-7.95 -30.5,0 -62.32,10.94 -95.47,32.81 -33.15,21.88 -65.64,50.39 -97.46,85.53 -31.82,35.14 -60.34,73.93 -85.53,116.36 -25.2,42.43 -45.09,84.2 -59.67,125.3z"/>
  <path id="_2" class="fil0" d="M3035.19 1493.72c-51.71,0 -90.17,-15.25 -115.36,-45.75 -25.19,-30.5 -37.79,-66.96 -37.79,-109.39 0,-30.5 4.65,-61 13.93,-91.49 9.28,-30.5 18.56,-60.67 27.84,-90.5 9.28,-29.83 13.92,-56.68 13.92,-80.55 0,-22.54 -4.31,-38.12 -12.92,-46.74 -8.62,-8.62 -19.56,-12.93 -32.82,-12.93 -30.5,0 -65.97,23.2 -106.41,69.62 -40.44,46.41 -90.5,114.04 -150.16,202.87 -21.22,31.82 -41.11,65.31 -59.68,100.44 -18.56,35.14 -35.14,64.64 -49.72,88.51 -11.94,0 -27.51,-1.99 -46.74,-5.97 -19.23,-3.97 -36.14,-9.61 -50.72,-16.91 -14.59,-7.29 -21.88,-16.91 -21.88,-28.84 0,-11.94 6.64,-35.14 19.89,-69.62 13.26,-34.47 28.51,-74.59 45.75,-120.33 17.24,-45.75 32.49,-90.82 45.75,-135.24 13.26,-44.43 19.9,-81.88 19.9,-112.38 0,-18.56 -3.32,-33.15 -9.95,-43.76 -6.63,-10.61 -17.24,-15.91 -31.82,-15.91 -27.84,0 -61.32,16.57 -100.44,49.72 -39.12,33.15 -80.23,76.58 -123.32,130.28 -43.09,53.7 -83.54,113.37 -121.32,179 -37.79,65.64 -68.63,131.61 -92.49,197.9 -14.59,0 -32.49,-2.98 -53.7,-8.95 -21.22,-5.97 -39.79,-13.25 -55.7,-21.88 -15.91,-8.62 -23.87,-16.25 -23.87,-22.87 0,-1.33 4.64,-20.22 13.92,-56.68 9.29,-36.47 20.56,-81.88 33.82,-136.25 13.25,-54.36 27.18,-110.05 41.77,-167.07 14.59,-57.02 27.18,-106.74 37.79,-149.17 3.97,-14.59 18.56,-27.51 43.76,-38.79 25.19,-11.27 47.07,-16.91 65.64,-16.91 18.56,0 34.47,5.97 47.73,17.9 13.26,11.94 19.89,27.84 19.89,47.73 0,13.26 -2.65,32.49 -7.95,57.68 -5.31,25.2 -11.94,53.7 -19.89,85.53 27.84,-37.12 57.34,-73.92 88.51,-110.38 31.16,-36.47 63.65,-69.29 97.46,-98.46 33.81,-29.17 67.62,-52.37 101.44,-69.62 33.81,-17.24 67.29,-25.86 100.44,-25.86 49.07,0 82.21,17.57 99.46,52.71 17.24,35.14 25.86,73.26 25.86,114.37 0,17.24 -1.33,34.15 -3.98,50.72 -2.65,16.58 -6.3,33.15 -10.94,49.73 -4.64,16.58 -10.94,36.14 -18.89,58.68 25.19,-37.13 52.7,-71.27 82.54,-102.44 29.83,-31.16 61.98,-56.02 96.46,-74.59 34.48,-18.56 70.94,-27.84 109.4,-27.84 51.71,0 87.51,15.58 107.4,46.74 19.9,31.16 29.84,65.31 29.84,102.43 0,34.48 -5.64,70.61 -16.91,108.4 -11.27,37.79 -22.54,73.6 -33.81,107.41 -11.28,33.81 -16.91,62.65 -16.91,86.52 0,13.25 3.31,25.52 9.94,36.79 6.64,11.27 19.89,16.91 39.78,16.91 35.81,0 70.28,-16.58 103.43,-49.73 33.15,-33.15 63.98,-73.92 92.49,-122.32 28.51,-48.4 52.71,-94.48 72.6,-138.24l33.81 41.77c-21.22,54.37 -48.73,109.73 -82.54,166.09 -33.82,56.35 -73.26,103.42 -118.35,141.21 -45.09,37.79 -96.8,56.68 -155.14,56.68z"/>
  <path id="_3" class="fil0" d="M3518.51 1577.26c-75.58,0 -132.93,-23.53 -172.05,-70.61 -39.11,-47.07 -58.67,-111.71 -58.67,-193.92 0,-66.3 11.27,-143.87 33.81,-232.71 22.54,-88.84 52.38,-182 89.51,-279.46 37.12,-97.46 78.9,-192.93 125.3,-286.41 46.41,-93.48 93.49,-178.02 141.22,-253.59 47.73,-75.58 92.82,-135.91 135.25,-181 42.43,-45.09 78.9,-67.62 109.4,-67.62 26.52,0 46.41,15.25 59.67,45.75 13.25,30.5 19.89,62.31 19.89,95.47 0,35.81 -7.95,80.23 -23.87,133.27 -15.91,53.04 -38.45,109.06 -67.62,168.07 -29.17,59.01 -62.99,117.68 -101.44,176.03 -38.45,58.34 -80.55,111.38 -126.3,159.11 -45.75,47.74 -93.15,85.53 -142.21,113.38 -9.28,17.24 -20.89,47.07 -34.81,89.5 -13.92,42.43 -26.52,90.5 -37.79,144.2 -11.27,53.7 -16.91,106.41 -16.91,158.13 0,53.04 8.28,96.13 24.86,129.29 16.58,33.15 44.09,49.72 82.55,49.72 34.47,0 70.94,-13.58 109.39,-40.77 38.46,-27.18 70.28,-61.33 95.47,-102.44 -49.06,-26.52 -86.19,-63.64 -111.38,-111.38 -25.2,-47.73 -37.79,-98.12 -37.79,-151.16 0,-63.65 17.24,-115.69 51.71,-156.14 34.48,-40.44 77.57,-60.66 129.29,-60.66 42.43,0 77.57,16.24 105.41,48.73 27.84,32.48 41.77,83.87 41.77,154.14 0,35.8 -4.31,73.92 -12.93,114.37 -8.62,40.45 -22.21,81.88 -40.78,124.31 3.98,1.32 7.62,1.99 10.95,1.99 3.31,0 6.96,0 10.94,0 53.04,0 99.45,-16.91 139.23,-50.72 39.78,-33.82 74.92,-76.58 105.41,-128.3 30.5,-51.71 56.35,-105.41 77.57,-161.1 21.22,-55.7 39.12,-105.42 53.71,-149.17 -5.31,-6.64 -9.62,-13.59 -12.93,-20.89 -3.31,-7.29 -4.97,-16.91 -4.97,-28.84 0,-38.45 11.27,-72.93 33.81,-103.43 22.54,-30.5 44.42,-45.75 65.64,-45.75 17.24,0 28.18,8.62 32.82,25.86 4.64,17.24 6.96,29.17 6.96,35.8 0,10.61 -3.64,23.87 -10.94,39.79 -7.29,15.91 -10.94,27.84 -10.94,35.8 0,11.94 10.94,24.86 32.81,38.79 21.88,13.92 47.07,30.5 75.58,49.72 28.51,19.23 53.7,43.43 75.58,72.6 21.88,29.17 32.81,65.64 32.81,109.4 0,38.45 -7.95,78.23 -23.86,119.34 -15.92,41.11 -32.16,79.56 -48.73,115.36 -16.58,35.8 -24.87,66.96 -24.87,93.48 0,17.24 4.97,28.84 14.92,34.81 9.95,5.97 21.55,8.95 34.81,8.95 31.82,0 64.64,-9.95 98.46,-29.84 33.81,-19.89 66.29,-45.41 97.45,-76.57 31.17,-31.16 59.01,-63.98 83.54,-98.46 24.53,-34.47 43.43,-66.29 56.69,-95.47l35.8 23.86c-26.52,58.35 -61.32,116.36 -104.42,174.04 -43.1,57.68 -91.83,105.74 -146.19,144.2 -54.37,38.46 -112.05,57.68 -173.05,57.68 -49.06,0 -89.18,-12.92 -120.33,-38.78 -31.17,-25.86 -46.74,-61.32 -46.74,-106.41 0,-37.12 8.95,-77.57 26.85,-121.33 17.9,-43.75 35.8,-86.52 53.7,-128.29 17.9,-41.77 26.85,-78.57 26.85,-110.38 0,-33.15 -10.28,-59.01 -30.84,-77.57 -20.55,-18.57 -43.42,-35.81 -68.62,-51.71 -17.24,54.36 -37.45,111.38 -60.66,171.05 -23.21,59.67 -51.71,115.69 -85.53,168.07 -33.81,52.38 -74.92,94.81 -123.32,127.3 -48.39,32.48 -105.74,48.73 -172.05,48.73 -7.95,0 -16.24,-0.33 -24.86,-1 -8.61,-0.66 -17.56,-1.66 -26.85,-2.98 -37.13,59.67 -83.21,110.39 -138.24,152.16 -55.03,41.77 -119.67,62.65 -193.93,62.65zm278.46 -312.27c10.61,-25.19 19.23,-51.38 25.86,-78.56 6.64,-27.18 9.95,-57.35 9.95,-90.5 0,-41.11 -4.97,-74.59 -14.92,-100.44 -9.95,-25.86 -24.2,-38.78 -42.76,-38.78 -17.24,0 -32.15,11.94 -44.75,35.8 -12.6,23.87 -18.9,53.04 -18.9,87.52 0,31.82 6.63,64.98 19.89,99.45 13.26,34.48 35.14,62.98 65.64,85.53zm-218.78 -487.3c31.82,-30.5 62.98,-65.31 93.48,-104.42 30.5,-39.12 59.01,-80.55 85.53,-124.31 26.52,-43.76 50.06,-86.52 70.61,-128.29 20.55,-41.77 37.45,-80.23 50.72,-115.36 13.26,-35.14 21.88,-63.98 25.86,-86.52 1.33,-3.97 1.99,-8.95 1.99,-14.91 0,-5.97 -1.33,-8.29 -3.98,-6.97 -11.93,2.65 -31.16,21.22 -57.67,55.7 -26.52,34.47 -56.35,79.56 -89.51,135.24 -33.15,55.7 -65.31,117.35 -96.46,184.98 -31.17,67.62 -58.02,135.91 -80.55,204.86z"/>
  <path id="_4" class="fil0" d="M5071.91 1519.58c-84.86,0 -150.16,-22.87 -195.91,-68.62 -45.75,-45.75 -68.62,-103.09 -68.62,-172.05 0,-58.34 14.92,-120.33 44.75,-185.97 29.84,-65.64 69.95,-127.29 120.33,-184.97 50.39,-57.68 106.08,-104.43 167.08,-140.22 61,-35.81 121.99,-53.7 182.99,-53.7 34.48,0 67.29,8.94 98.46,26.85 31.16,17.9 46.74,53.37 46.74,106.41 0,50.39 -14.58,97.46 -43.75,141.22 -29.17,43.75 -68.29,82.87 -117.35,117.35 -49.07,34.47 -103.1,62.65 -162.11,84.53 -59.01,21.88 -118.35,36.14 -178.02,42.76 -1.33,5.31 -2.32,10.95 -2.98,16.91 -0.66,5.96 -0.99,15.58 -0.99,28.83 0,6.64 0.99,18.23 2.98,34.81 1.99,16.58 7.62,34.15 16.91,52.71 9.28,18.56 24.53,34.48 45.75,47.73 21.22,13.26 50.39,19.89 87.51,19.89 55.7,0 111.72,-15.58 168.07,-46.74 56.35,-31.17 109.39,-72.6 159.11,-124.31 49.73,-51.71 91.16,-109.4 124.31,-173.05l39.78 31.82c-35.81,79.57 -81.88,149.17 -138.24,208.84 -56.35,59.68 -118.68,106.08 -186.97,139.23 -68.29,33.15 -138.23,49.72 -209.84,49.72zm-83.53 -360c34.47,-3.98 72.93,-15.91 115.35,-35.8 42.43,-19.89 83.21,-45.09 122.33,-75.58 39.11,-30.5 71.27,-63.98 96.46,-100.44 25.2,-36.47 37.79,-73.26 37.79,-110.38 0,-14.59 -2.65,-24.54 -7.95,-29.84 -5.31,-5.31 -13.93,-7.95 -25.86,-7.95 -30.5,0 -62.32,10.94 -95.47,32.81 -33.15,21.88 -65.64,50.39 -97.46,85.53 -31.82,35.14 -60.34,73.93 -85.53,116.36 -25.2,42.43 -45.09,84.2 -59.67,125.3z"/>
  <path id="_5" class="fil0" d="M5662.64 1451.96c-31.82,0 -54.37,-8.28 -67.62,-24.86 -13.26,-16.58 -19.89,-33.48 -19.89,-50.73 0,-14.58 6.63,-30.16 19.89,-46.74 13.25,-16.58 29.83,-30.5 49.72,-41.77 19.89,-11.27 38.46,-16.91 55.7,-16.91 14.58,0 29.17,4.31 43.76,12.93 14.58,8.61 21.88,24.86 21.88,48.73 0,10.61 -3.98,25.52 -11.94,44.75 -7.95,19.23 -19.56,36.47 -34.81,51.71 -15.25,15.25 -34.14,22.87 -56.68,22.87z"/>
  <path id="_6" class="fil0" d="M7041.01 1493.72c-51.71,0 -90.17,-15.25 -115.36,-45.75 -25.19,-30.5 -37.79,-66.96 -37.79,-109.39 0,-30.5 4.65,-61 13.93,-91.49 9.28,-30.5 18.56,-60.67 27.84,-90.5 9.28,-29.83 13.92,-56.68 13.92,-80.55 0,-22.54 -4.31,-38.12 -12.92,-46.74 -8.62,-8.62 -19.56,-12.93 -32.82,-12.93 -30.5,0 -65.97,23.2 -106.41,69.62 -40.44,46.41 -90.5,114.04 -150.16,202.87 -21.22,31.82 -41.11,65.31 -59.68,100.44 -18.56,35.14 -35.14,64.64 -49.72,88.51 -11.94,0 -27.51,-1.99 -46.74,-5.97 -19.23,-3.97 -36.14,-9.61 -50.72,-16.91 -14.59,-7.29 -21.88,-16.91 -21.88,-28.84 0,-11.94 6.64,-35.14 19.89,-69.62 13.26,-34.47 28.51,-74.59 45.75,-120.33 17.24,-45.75 32.49,-90.82 45.75,-135.24 13.26,-44.43 19.9,-81.88 19.9,-112.38 0,-18.56 -3.32,-33.15 -9.95,-43.76 -6.63,-10.61 -17.24,-15.91 -31.82,-15.91 -27.84,0 -61.32,16.57 -100.44,49.72 -39.12,33.15 -80.23,76.58 -123.32,130.28 -43.09,53.7 -83.54,113.37 -121.32,179 -37.79,65.64 -68.63,131.61 -92.49,197.9 -14.59,0 -32.49,-2.98 -53.7,-8.95 -21.22,-5.97 -39.79,-13.25 -55.7,-21.88 -15.91,-8.62 -23.87,-16.25 -23.87,-22.87 0,-1.33 4.64,-20.22 13.92,-56.68 9.29,-36.47 20.56,-81.88 33.82,-136.25 13.25,-54.36 27.18,-110.05 41.77,-167.07 14.59,-57.02 27.18,-106.74 37.79,-149.17 3.97,-14.59 18.56,-27.51 43.76,-38.79 25.19,-11.27 47.07,-16.91 65.64,-16.91 18.56,0 34.47,5.97 47.73,17.9 13.26,11.94 19.89,27.84 19.89,47.73 0,13.26 -2.65,32.49 -7.95,57.68 -5.31,25.2 -11.94,53.7 -19.89,85.53 27.84,-37.12 57.34,-73.92 88.51,-110.38 31.16,-36.47 63.65,-69.29 97.46,-98.46 33.81,-29.17 67.62,-52.37 101.44,-69.62 33.81,-17.24 67.29,-25.86 100.44,-25.86 49.07,0 82.21,17.57 99.46,52.71 17.24,35.14 25.86,73.26 25.86,114.37 0,17.24 -1.33,34.15 -3.98,50.72 -2.65,16.58 -6.3,33.15 -10.94,49.73 -4.64,16.58 -10.94,36.14 -18.89,58.68 25.19,-37.13 52.7,-71.27 82.54,-102.44 29.83,-31.16 61.98,-56.02 96.46,-74.59 34.48,-18.56 70.94,-27.84 109.4,-27.84 51.71,0 87.51,15.58 107.4,46.74 19.9,31.16 29.84,65.31 29.84,102.43 0,34.48 -5.64,70.61 -16.91,108.4 -11.27,37.79 -22.54,73.6 -33.81,107.41 -11.28,33.81 -16.91,62.65 -16.91,86.52 0,13.25 3.31,25.52 9.94,36.79 6.64,11.27 19.89,16.91 39.78,16.91 35.81,0 70.28,-16.58 103.43,-49.73 33.15,-33.15 63.98,-73.92 92.49,-122.32 28.51,-48.4 52.71,-94.48 72.6,-138.24l33.81 41.77c-21.22,54.37 -48.73,109.73 -82.54,166.09 -33.82,56.35 -73.26,103.42 -118.35,141.21 -45.09,37.79 -96.8,56.68 -155.14,56.68z"/>
  <path id="_7" class="fil0" d="M7544.23 1519.58c-84.86,0 -150.16,-22.87 -195.91,-68.62 -45.75,-45.75 -68.62,-103.09 -68.62,-172.05 0,-58.34 14.92,-120.33 44.75,-185.97 29.84,-65.64 69.95,-127.29 120.33,-184.97 50.39,-57.68 106.08,-104.43 167.08,-140.22 61,-35.81 121.99,-53.7 182.99,-53.7 34.48,0 67.29,8.94 98.46,26.85 31.16,17.9 46.74,53.37 46.74,106.41 0,50.39 -14.58,97.46 -43.75,141.22 -29.17,43.75 -68.29,82.87 -117.35,117.35 -49.07,34.47 -103.1,62.65 -162.11,84.53 -59.01,21.88 -118.35,36.14 -178.02,42.76 -1.33,5.31 -2.32,10.95 -2.98,16.91 -0.66,5.96 -0.99,15.58 -0.99,28.83 0,6.64 0.99,18.23 2.98,34.81 1.99,16.58 7.62,34.15 16.91,52.71 9.28,18.56 24.53,34.48 45.75,47.73 21.22,13.26 50.39,19.89 87.51,19.89 55.7,0 111.72,-15.58 168.07,-46.74 56.35,-31.17 109.39,-72.6 159.11,-124.31 49.73,-51.71 91.16,-109.4 124.31,-173.05l39.78 31.82c-35.81,79.57 -81.88,149.17 -138.24,208.84 -56.35,59.68 -118.68,106.08 -186.97,139.23 -68.29,33.15 -138.23,49.72 -209.84,49.72zm-83.53 -360c34.47,-3.98 72.93,-15.91 115.35,-35.8 42.43,-19.89 83.21,-45.09 122.33,-75.58 39.11,-30.5 71.27,-63.98 96.46,-100.44 25.2,-36.47 37.79,-73.26 37.79,-110.38 0,-14.59 -2.65,-24.54 -7.95,-29.84 -5.31,-5.31 -13.93,-7.95 -25.86,-7.95 -30.5,0 -62.32,10.94 -95.47,32.81 -33.15,21.88 -65.64,50.39 -97.46,85.53 -31.82,35.14 -60.34,73.93 -85.53,116.36 -25.2,42.43 -45.09,84.2 -59.67,125.3z"/>
 </g>
</svg>
